<?xml version="1.0" encoding="UTF-8"?><svg id="a" xmlns="http://www.w3.org/2000/svg" viewBox="0 0 1017.838 282.585"><defs><style>.b{fill:#234e77;}.c{fill:#4d4d4d;}.d{fill:none;}</style></defs><rect class="d" y="0" width="1017.838" height="282.585"/><g><path class="b" d="M27.047,90.804L103.978,46.175c.005-.003,.012-.003,.018,0l77.627,45.032c.005,.003,.012,.003,.018,0l20.493-11.842c.012-.007,.012-.024,0-.031L103.996,22.404c-.005-.003-.012-.003-.018,0L6.713,78.829c-.012,.007-.012,.024,0,.031l20.316,11.945c.006,.003,.012,.003,.018,0ZM97.946,236.42L20.574,191.535c-.005-.003-.009-.009-.009-.015V101.007c0-.006-.003-.012-.009-.015L.027,88.922c-.012-.007-.027,.002-.027,.015v114.424c0,.006,.003,.012,.009,.015l97.919,56.804c.012,.007,.027-.002,.027-.015v-23.731c0-.006-.003-.012-.009-.015ZM187.409,101.817v89.703c0,.006-.003,.012-.009,.015l-77.371,44.884c-.005,.003-.009,.009-.009,.015v23.731c0,.014,.015,.022,.027,.015l97.919-56.804c.005-.003,.009-.009,.009-.015V89.954c0-.014-.015-.022-.027-.015l-20.53,11.863c-.005,.003-.009,.009-.009,.015Z"/><g><polygon class="b" points="89.909 169.816 82.06 186.786 125.774 186.786 117.924 169.816 89.909 169.816"/><polygon class="b" points="113.422 81.412 94.838 81.412 45.616 186.786 64.346 186.786 72.192 169.816 72.188 169.816 104.169 101.39 143.488 186.786 162.721 186.786 113.422 81.412"/></g><g><polygon class="c" points="402.938 81.114 385.956 81.114 385.956 186.483 457.911 186.486 457.911 170.411 402.938 170.411 402.938 81.114"/><polygon class="c" points="305.237 81.112 256.015 186.486 274.744 186.486 282.591 169.516 282.586 169.516 314.567 101.09 353.886 186.486 373.12 186.486 323.82 81.112 305.237 81.112"/><polygon class="c" points="523.922 143.247 485.038 81.114 470.747 81.114 470.747 186.483 487.72 186.483 487.72 115.612 523.906 172.959 560.195 115.593 560.195 186.483 577.096 186.483 577.096 81.114 562.805 81.114 523.922 143.247"/><polygon class="c" points="300.308 169.516 292.458 186.486 335.248 186.486 327.399 169.516 300.308 169.516"/><polygon class="c" points="837.452 80.461 797.731 141.878 797.731 185.833 815.075 185.833 815.075 143.897 856.463 80.461 837.452 80.461"/><polygon class="c" points="780.634 80.463 763.503 80.462 788.608 126.208 797.973 111.756 780.634 80.463"/><polygon class="c" points="606.885 138.678 655.943 138.678 655.943 122.6 606.888 122.6 606.888 96.62 669.427 96.62 669.427 80.463 589.906 80.463 589.906 185.832 671.152 185.832 671.152 169.756 606.885 169.755 606.885 138.678"/><polygon class="c" points="683.981 185.833 700.962 185.833 700.962 140.405 749.196 140.405 749.196 124.239 700.962 124.239 700.962 96.625 753.236 96.754 753.236 80.462 683.981 80.462 683.981 185.833"/></g></g></svg>